<?xml version="1.0" encoding="UTF-8" standalone="no"?> <svg width="512" height="512" viewBox="0 0 512 512" fill="none" xmlns="http://www.w3.org/2000/svg">
<path d="M397.579 172.938C396.973 171.476 395.948 170.227 394.632 169.348C393.317 168.469 391.77 168 390.188 168H367.611C354.669 167.988 342.016 171.819 331.254 179.008L323.79 183.984L318.576 183.949H318.254C309.535 183.916 300.981 186.33 293.565 190.915C286.149 195.501 280.167 202.074 276.3 209.889L276.028 210.434C275.216 212.101 273.952 213.507 272.38 214.492C270.809 215.477 268.993 216.001 267.138 216.006H266.913C265.174 216.002 263.464 215.557 261.943 214.714L225.443 194.437C214.599 188.402 202.571 184.799 190.195 183.879C177.819 182.96 165.391 184.745 153.774 189.111C149.374 190.765 145.242 193.06 141.512 195.922C141.005 196.081 140.516 196.292 140.052 196.552L97.5781 220.64L97.4081 220.74C92.5526 223.654 86.7895 224.664 81.2326 223.575C75.6756 222.487 70.7195 219.377 67.3221 214.847L61.3081 206.827C59.2904 204.13 56.7521 201.866 53.8434 200.168C50.9347 198.47 47.7149 197.374 44.3746 196.943C41.0343 196.512 37.6416 196.756 34.3973 197.66C31.153 198.565 28.1233 200.111 25.4875 202.207C22.8517 204.304 20.6635 206.908 19.0525 209.866C17.4415 212.824 16.4404 216.074 16.1087 219.426C15.777 222.778 16.1213 226.162 17.1212 229.378C18.1212 232.594 19.7564 235.576 21.9301 238.149L29.3351 246.933C40.5084 260.186 56.1714 268.86 73.3336 271.299C90.4958 273.737 107.955 269.77 122.378 260.154L125.278 258.219L125.912 262.657L114.381 285.721C112.757 288.959 111.96 292.549 112.06 296.17C112.161 299.792 113.156 303.332 114.956 306.475L143.239 355.969C143.939 357.194 144.95 358.212 146.171 358.92C147.391 359.628 148.777 360.001 150.188 360H182.188C183.674 360 185.13 359.587 186.394 358.806C187.658 358.025 188.68 356.907 189.344 355.578L197.344 339.578C197.9 338.467 198.189 337.242 198.189 336C198.189 334.758 197.9 333.533 197.344 332.422L192.921 323.577C191.593 320.899 189.704 318.538 187.382 316.655C185.06 314.772 182.36 313.411 179.465 312.665L176.922 307.578L178.23 306.924C181.739 305.164 185.69 304.48 189.587 304.958L242.609 311.403L260.78 350.713C262.067 353.482 264.116 355.826 266.688 357.471C269.26 359.116 272.247 359.993 275.3 360H382.188C383.777 360 385.33 359.527 386.649 358.642C387.968 357.756 388.993 356.498 389.594 355.027L394.506 343.012C396.438 338.288 396.959 333.104 396.005 328.09C395.051 323.076 392.663 318.446 389.131 314.762C385.598 311.077 381.073 308.496 376.104 307.332C371.134 306.167 365.934 306.469 361.132 308.2L354.881 310.453L343.543 295.177L347.133 287.996H354.416C359.164 287.996 363.85 286.913 368.117 284.831C372.384 282.749 376.121 279.721 379.043 275.979C381.965 272.236 383.996 267.877 384.981 263.233C385.966 258.588 385.88 253.78 384.729 249.173L382.515 240.315L382.623 239.991C384.836 233.427 385.481 226.435 384.504 219.577C383.528 212.719 380.958 206.186 377 200.5L395.845 181.655C396.964 180.536 397.725 179.111 398.034 177.56C398.343 176.008 398.184 174.4 397.579 172.938V172.938ZM121.751 241.344L113.503 246.844C102.352 254.278 88.8529 257.345 75.5841 255.459C62.3153 253.573 50.2057 246.867 41.5671 236.62L34.1621 227.837C33.372 226.9 32.7779 225.813 32.415 224.642C32.052 223.471 31.9276 222.24 32.0491 221.02C32.1705 219.8 32.5354 218.617 33.122 217.54C33.7087 216.464 34.5053 215.516 35.4647 214.753C36.4241 213.989 37.5267 213.426 38.7075 213.097C39.8883 212.767 41.1232 212.677 42.3392 212.833C43.5552 212.989 44.7275 213.388 45.787 214.004C46.8464 214.621 47.7713 215.444 48.5071 216.425L54.5211 224.444C60.2831 232.126 68.6837 237.405 78.1052 239.264C87.5266 241.123 97.3028 239.431 105.551 234.513L123.489 224.339C122.311 229.733 122.078 235.29 122.798 240.764C122.435 240.931 122.085 241.125 121.751 241.344ZM360.531 205.657C364.304 209.404 366.951 214.133 368.173 219.308C369.395 224.483 369.142 229.897 367.443 234.936L366.599 237.47C366.118 238.913 366.059 240.464 366.428 241.94L369.207 253.058C369.768 255.306 369.81 257.652 369.329 259.918C368.848 262.184 367.857 264.311 366.431 266.136C365.006 267.962 363.183 269.439 361.101 270.455C359.019 271.471 356.733 272 354.416 272H342.188C340.702 272 339.246 272.414 337.983 273.195C336.719 273.976 335.697 275.093 335.033 276.422L327.033 292.422C326.372 293.745 326.09 295.225 326.219 296.699C326.348 298.172 326.884 299.581 327.765 300.768L345.576 324.768C346.601 326.148 348.043 327.162 349.688 327.658C351.334 328.155 353.096 328.108 354.713 327.525L366.559 323.255C368.449 322.574 370.495 322.455 372.451 322.914C374.407 323.372 376.188 324.388 377.578 325.838C378.968 327.287 379.908 329.109 380.284 331.083C380.659 333.056 380.455 335.096 379.695 336.955L376.816 344H309.275L287.354 292.849C286.94 291.883 286.341 291.009 285.589 290.275C284.837 289.541 283.948 288.962 282.973 288.572C281.997 288.181 280.955 287.987 279.904 287.999C278.854 288.012 277.816 288.231 276.85 288.645C275.884 289.059 275.009 289.659 274.276 290.41C273.542 291.162 272.963 292.051 272.573 293.026C272.182 294.002 271.988 295.045 272 296.095C272.013 297.146 272.232 298.183 272.646 299.149L291.867 344H275.3L255.258 300.644C254.686 299.406 253.807 298.335 252.704 297.533C251.601 296.73 250.312 296.223 248.958 296.059L191.51 289.075C184.496 288.215 177.384 289.445 171.067 292.613L162.603 296.845C160.705 297.794 159.262 299.458 158.591 301.471C157.92 303.483 158.076 305.68 159.025 307.578L167.025 323.578C167.69 324.908 168.713 326.026 169.978 326.807C171.243 327.588 172.701 328.001 174.188 328C175.107 327.997 176.008 328.251 176.79 328.734C177.572 329.217 178.202 329.91 178.61 330.733L181.244 336L177.244 344H154.831L128.852 298.537C128.361 297.68 128.089 296.715 128.062 295.727C128.034 294.739 128.251 293.76 128.694 292.877L141.344 267.577C142.071 266.121 142.338 264.478 142.108 262.867L138.7 239.007C137.694 231.704 139.193 224.276 142.953 217.934C146.712 211.593 152.51 206.713 159.4 204.091C168.847 200.541 178.953 199.09 189.017 199.838C199.081 200.586 208.862 203.515 217.68 208.422L254.18 228.699C258.074 230.858 262.452 231.996 266.904 232.005H267.157C271.984 232.009 276.716 230.659 280.815 228.11C284.914 225.561 288.217 221.913 290.348 217.582L290.619 217.038C293.168 211.889 297.109 207.558 301.996 204.537C306.883 201.516 312.519 199.926 318.264 199.948H318.477L326.142 199.999C327.739 200.008 329.302 199.54 330.632 198.655L340.132 192.319C348.266 186.886 357.83 183.991 367.611 184H370.875L360.531 194.343C359.788 195.086 359.199 195.968 358.797 196.938C358.395 197.909 358.188 198.949 358.188 200C358.188 201.051 358.395 202.091 358.797 203.062C359.199 204.032 359.788 204.914 360.531 205.657V205.657ZM354.188 232C354.188 233.978 353.602 235.911 352.503 237.556C351.404 239.2 349.842 240.482 348.015 241.239C346.188 241.996 344.177 242.194 342.237 241.808C340.297 241.422 338.516 240.47 337.117 239.071C335.718 237.673 334.766 235.891 334.38 233.951C333.994 232.011 334.192 230 334.949 228.173C335.706 226.346 336.988 224.784 338.632 223.685C340.277 222.587 342.21 222 344.188 222C346.84 222 349.384 223.054 351.259 224.929C353.134 226.804 354.188 229.348 354.188 232V232ZM331.846 242.343C332.589 243.086 333.178 243.968 333.58 244.938C333.982 245.909 334.189 246.949 334.189 248C334.189 249.051 333.982 250.091 333.58 251.062C333.178 252.032 332.589 252.914 331.846 253.657L315.846 269.657C314.346 271.158 312.311 272.001 310.189 272.001C308.067 272.001 306.032 271.158 304.532 269.658C303.031 268.157 302.188 266.122 302.188 264C302.188 261.879 303.031 259.844 304.531 258.343L306.874 256H302.188C300.066 256 298.032 255.157 296.531 253.657C295.031 252.157 294.188 250.122 294.188 248C294.188 245.878 295.031 243.843 296.531 242.343C298.032 240.843 300.066 240 302.188 240H306.874L304.531 237.657C303.788 236.914 303.199 236.032 302.797 235.061C302.395 234.091 302.188 233.05 302.188 232C302.188 230.949 302.395 229.909 302.797 228.938C303.199 227.967 303.789 227.085 304.532 226.343C305.275 225.6 306.157 225.01 307.127 224.608C308.098 224.206 309.138 223.999 310.189 223.999C311.24 224 312.28 224.207 313.251 224.609C314.221 225.011 315.103 225.6 315.846 226.343L331.846 242.343ZM471.46 275.111C479.012 269.85 485.185 262.848 489.456 254.696C493.728 246.544 495.973 237.482 496 228.279C496.021 220.796 494.557 213.382 491.693 206.468C488.83 199.555 484.623 193.277 479.317 188L468 176.683C464.184 172.889 461.159 168.375 459.099 163.404C457.039 158.433 455.986 153.102 456 147.721C456.02 140.652 457.86 133.707 461.343 127.556C464.826 121.405 469.835 116.254 475.886 112.6L492.116 102.861C493.935 101.769 495.247 99.9998 495.761 97.9414C496.276 95.883 495.952 93.7045 494.86 91.8851C493.768 90.0657 491.999 88.7545 489.94 88.2399C487.882 87.7253 485.703 88.0494 483.884 89.1411L467.653 98.8791C459.238 103.961 452.274 111.124 447.43 119.679C442.587 128.233 440.028 137.891 440 147.721C439.979 155.205 441.443 162.618 444.307 169.532C447.171 176.446 451.377 182.723 456.683 188L468 199.317C471.816 203.111 474.841 207.625 476.901 212.596C478.961 217.567 480.014 222.898 480 228.279C479.98 235.348 478.14 242.293 474.657 248.444C471.174 254.595 466.165 259.746 460.114 263.4L443.884 273.139C443.292 273.496 442.75 273.929 442.27 274.427C433.514 277.625 426.15 283.779 421.449 291.828C416.747 299.877 415.004 309.315 416.521 318.513C418.037 327.71 422.717 336.089 429.753 342.203C436.789 348.317 445.739 351.783 455.058 352.001C464.377 352.219 473.479 349.176 480.794 343.397C488.108 337.619 493.175 329.468 495.119 320.352C497.064 311.235 495.764 301.726 491.445 293.466C487.125 285.206 480.057 278.714 471.46 275.11V275.111ZM474.253 327.558L452.543 310.19L479.281 317.829C478.378 321.417 476.657 324.747 474.253 327.558V327.558ZM477.096 300.564L444.14 291.148C446.914 289.566 449.975 288.555 453.145 288.172C456.315 287.79 459.529 288.045 462.599 288.922C465.669 289.799 468.533 291.281 471.022 293.28C473.512 295.279 475.577 297.756 477.096 300.564V300.564ZM432.115 314.337L458.958 335.811C455.778 336.213 452.549 335.972 449.463 335.104C446.377 334.235 443.497 332.755 440.994 330.752C438.491 328.75 436.415 326.265 434.89 323.445C433.365 320.625 432.421 317.528 432.115 314.337V314.337ZM80.0001 296C80.0001 298.122 79.1572 300.157 77.6569 301.657C76.1566 303.157 74.1218 304 72.0001 304H65.8891C59.0232 304.023 52.2882 302.122 46.4477 298.513C40.6072 294.903 35.8949 289.729 32.8451 283.578C32.3655 282.637 32.0768 281.611 31.9958 280.558C31.9147 279.506 32.0428 278.447 32.3727 277.444C32.7027 276.442 33.2278 275.514 33.918 274.715C34.6082 273.916 35.4497 273.261 36.394 272.789C37.3384 272.317 38.3668 272.036 39.4202 271.963C40.4735 271.89 41.5308 272.027 42.5311 272.365C43.5315 272.702 44.4551 273.235 45.2487 273.931C46.0423 274.627 46.6902 275.474 47.1551 276.422C48.8843 279.909 51.5559 282.843 54.8671 284.889C58.1783 286.935 61.9966 288.013 65.8891 288H72.0001C74.1218 288 76.1566 288.843 77.6569 290.343C79.1572 291.843 80.0001 293.878 80.0001 296ZM417.929 272.3C417.146 273.011 416.23 273.561 415.233 273.915C414.237 274.27 413.179 274.424 412.123 274.368C411.067 274.311 410.032 274.046 409.079 273.587C408.125 273.128 407.273 272.485 406.57 271.694C405.867 270.903 405.328 269.981 404.984 268.981C404.64 267.98 404.498 266.921 404.566 265.866C404.634 264.81 404.91 263.778 405.38 262.83C405.849 261.882 406.502 261.036 407.3 260.342L416.3 252.342C417.083 251.631 417.999 251.082 418.996 250.727C419.993 250.372 421.05 250.218 422.106 250.274C423.163 250.331 424.197 250.596 425.151 251.055C426.104 251.514 426.956 252.157 427.659 252.948C428.362 253.739 428.901 254.661 429.245 255.662C429.589 256.662 429.731 257.721 429.663 258.777C429.596 259.832 429.319 260.864 428.85 261.812C428.38 262.76 427.727 263.606 426.929 264.3L417.929 272.3ZM431.821 247C431.165 246.18 430.676 245.238 430.384 244.229C430.091 243.22 430.001 242.163 430.117 241.119C430.232 240.075 430.553 239.064 431.06 238.143C431.567 237.223 432.25 236.411 433.07 235.755L439.4 230.69C440.746 229.614 441.849 228.266 442.639 226.734C443.428 225.202 443.885 223.521 443.981 221.801C444.076 220.08 443.808 218.359 443.193 216.749C442.577 215.139 441.63 213.677 440.411 212.459C438.911 210.959 438.068 208.924 438.068 206.802C438.068 204.68 438.911 202.645 440.412 201.145C441.912 199.644 443.947 198.801 446.069 198.801C448.191 198.802 450.226 199.645 451.726 201.145C454.536 203.955 456.721 207.326 458.139 211.038C459.557 214.749 460.177 218.718 459.957 222.686C459.737 226.653 458.683 230.53 456.863 234.062C455.043 237.594 452.499 240.703 449.396 243.185L443.066 248.249C442.246 248.905 441.304 249.394 440.295 249.686C439.286 249.979 438.229 250.07 437.185 249.954C436.141 249.838 435.13 249.517 434.209 249.01C433.289 248.504 432.477 247.82 431.821 247Z" fill="url(#paint0_linear_3_5963)"/>
<defs>
<linearGradient id="paint0_linear_3_5963" x1="136.283" y1="389.732" x2="464.666" y2="61.3491" gradientUnits="userSpaceOnUse">
<stop stop-color="#41DFD0"/>
<stop offset="1" stop-color="#EE83EF"/>
</linearGradient>
</defs>
</svg>
